# xmcd
#
# Track frame offsets: 
#        150
#        23117
#        50488
#        69526
#        87216
#        112827
#        144188
#        167724
#        185613
#
# Disc length: 2703 seconds
#
# Revision: 0
# Processed by: cddbd v1.5.2PL0 Copyright (c) Steve Scherf et al.
# Submitted via: ExactAudioCopy v0.95b4
#
DISCID=6f0a8d09
DTITLE=Archie Bell and The Drells - Archie Bell and The Drells - Where Wil
DTITLE=l You Go -Hard Not To Like It-Strategy [CD1]
DYEAR=2006
DGENRE=R&B
TTITLE0=Show Me How to Dance
TTITLE1=I Can't Get Enough of Your Love
TTITLE2=How Can I
TTITLE3=We've Got Somethin'
TTITLE4=Tighten Up at the Disco
TTITLE5=Strategy
TTITLE6=You're the Only One
TTITLE7=We Got 'Em Dancing
TTITLE8=Old People
EXTD=
EXTT0=
EXTT1=
EXTT2=
EXTT3=
EXTT4=
EXTT5=
EXTT6=
EXTT7=
EXTT8=
PLAYORDER=
